<?xml version="1.0" encoding="UTF-8"?>
<!DOCTYPE svg PUBLIC "-//W3C//DTD SVG 1.1//EN" "http://www.w3.org/Graphics/SVG/1.1/DTD/svg11.dtd">
<!-- Creator: CorelDRAW 2021 (64 Bit) -->
<svg xmlns="http://www.w3.org/2000/svg" xml:space="preserve" width="2.54mm" height="2.54mm" version="1.1" style="shape-rendering:geometricPrecision; text-rendering:geometricPrecision; image-rendering:optimizeQuality; fill-rule:evenodd; clip-rule:evenodd"
viewBox="0 0 254 254"
 xmlns:xlink="http://www.w3.org/1999/xlink"
 xmlns:xodm="http://www.corel.com/coreldraw/odm/2003">
 <defs>
  <style type="text/css">
   <![CDATA[
    .fil2 {fill:none}
    .fil0 {fill:#330000}
    .fil1 {fill:#FE9A00}
   ]]>
  </style>
   <clipPath id="id0">
    <path d="M-0 0l254 0 0 254 -254 0 0 -254z"/>
   </clipPath>
 </defs>
 <g id="Camada_x0020_1">
  <metadata id="CorelCorpID_0Corel-Layer"/>
  <g>
  </g>
  <g style="clip-path:url(#id0)">
   <g>
    <g id="_2183333187616">
     <path class="fil0" d="M175.63 193.03c-1.06,-3.81 -0.98,-95.32 0.03,-98.58 3.93,-0.95 24.14,-1.04 26.75,0.23 0.97,2.22 1.33,94.37 0.14,98.16l-3.1 0.73c-4.31,0.37 -21.35,0.21 -23.82,-0.54zm-135.88 0.37c-0.15,-3.84 32.66,-96.77 39.25,-115.5 6.84,-19.44 -8.69,-15.49 33.94,-15.49 4.48,0 3.85,1.45 5.31,5.82l8.87 25.14c3.87,11.01 7.89,21.91 11.7,32.97 3.39,9.82 23.03,61.42 23.09,67.2l-28.73 -0.13 -10.8 -30.92 -45.89 0.07c-3.81,8.7 -6.51,23.44 -10.52,30.63 -6.33,0.68 -19.42,0.52 -26.22,0.21zm146.44 -140.59c21.62,-4.34 25.14,26.69 6.59,30.45 -21.19,4.3 -26.63,-26.43 -6.59,-30.45zm-145.49 -76.57c-20.76,2.27 -37.96,7.69 -50.96,25.13 -13.61,18.26 -14.31,34.89 -14.31,61.54 0,17.6 -0.91,136.94 0.35,151.31 0.95,10.73 3.22,21.22 7.85,29.75 9.22,16.98 24.26,28.42 43.07,32.74 17.39,3.98 91.06,2.37 111.76,2.37 16.49,0 62.28,0.7 75.39,-0.42 19.14,-1.65 39.96,-9.43 50.64,-25.22 14,-20.72 14.32,-32.16 14.32,-61.52 0,-19.07 0.97,-135.3 -0.38,-151.27 -2,-23.58 -12.04,-40.83 -25.28,-50.6 -18.87,-13.91 -34.29,-14.3 -61.53,-14.3 -15.18,0 -139.09,-0.81 -150.92,0.49z"/>
     <path class="fil1" d="M83.75 137.25c0.6,-3.61 2.83,-9.32 4.04,-13.01l11.36 -38.37 15.74 51.36 -31.14 0.02zm-44 56.15c6.8,0.31 19.89,0.47 26.22,-0.21 4.01,-7.19 6.71,-21.93 10.52,-30.63l45.89 -0.07 10.8 30.92 28.73 0.13c-0.06,-5.78 -19.7,-57.38 -23.09,-67.2 -3.81,-11.06 -7.83,-21.96 -11.7,-32.97l-8.87 -25.14c-1.46,-4.37 -0.83,-5.82 -5.31,-5.82 -42.63,0 -27.1,-3.95 -33.94,15.49 -6.59,18.73 -39.4,111.66 -39.25,115.5z"/>
     <path class="fil1" d="M175.63 193.03c2.47,0.75 19.51,0.91 23.82,0.54l3.1 -0.73c1.19,-3.79 0.83,-95.94 -0.14,-98.16 -2.61,-1.27 -22.82,-1.18 -26.75,-0.23 -1.01,3.26 -1.09,94.77 -0.03,98.58z"/>
     <path class="fil0" d="M83.75 137.25l31.14 -0.02 -15.74 -51.36 -11.36 38.37c-1.21,3.69 -3.44,9.4 -4.04,13.01z"/>
     <path class="fil1" d="M186.19 52.81c-20.04,4.02 -14.6,34.75 6.59,30.45 18.55,-3.76 15.03,-34.79 -6.59,-30.45z"/>
    </g>
   </g>
  </g>
  <polygon class="fil2" points="-0,0 254,0 254,254 -0,254 "/>
 </g>
</svg>
