<?xml version="1.0" encoding="UTF-8"?>
<!DOCTYPE svg PUBLIC "-//W3C//DTD SVG 1.1//EN" "http://www.w3.org/Graphics/SVG/1.1/DTD/svg11.dtd">
<!-- Creator: CorelDRAW 2021 (64 Bit) -->
<svg xmlns="http://www.w3.org/2000/svg" xml:space="preserve" width="2.54mm" height="2.54mm" version="1.1" style="shape-rendering:geometricPrecision; text-rendering:geometricPrecision; image-rendering:optimizeQuality; fill-rule:evenodd; clip-rule:evenodd"
viewBox="0 0 254 254"
 xmlns:xlink="http://www.w3.org/1999/xlink"
 xmlns:xodm="http://www.corel.com/coreldraw/odm/2003">
 <defs>
  <style type="text/css">
   <![CDATA[
    .str0 {stroke:#00A859;stroke-width:7.62;stroke-miterlimit:22.9256}
    .fil22 {fill:none}
    .fil0 {fill:#FEFEFE}
    .fil1 {fill:#02963D}
    .fil16 {fill:#06CAF8}
    .fil19 {fill:#0A92EF}
    .fil5 {fill:#0B8C54}
    .fil8 {fill:#13A8E3}
    .fil12 {fill:#28CDCC}
    .fil2 {fill:#2AC64B}
    .fil21 {fill:#30D0B7}
    .fil4 {fill:#656565}
    .fil9 {fill:#753588}
    .fil15 {fill:#8B2B6E}
    .fil7 {fill:#97CC1A}
    .fil14 {fill:#9C1C47}
    .fil13 {fill:#B5182C}
    .fil11 {fill:#B6D716}
    .fil3 {fill:#CBD70B}
    .fil20 {fill:#CD1E25}
    .fil6 {fill:#E33A29}
    .fil10 {fill:#E55727}
    .fil17 {fill:#E9731B}
    .fil18 {fill:#EE9210}
   ]]>
  </style>
   <clipPath id="id0">
    <path d="M-0 0l254 0 0 254 -254 0 0 -254z"/>
   </clipPath>
 </defs>
 <g id="Camada_x0020_1">
  <metadata id="CorelCorpID_0Corel-Layer"/>
  <polygon class="fil0" points="-0,0 254,0 254,254 -0,254 "/>
  <g style="clip-path:url(#id0)">
   <g id="_2183321011520">
    <g>
     <path id="_1" class="fil1" d="M109.47 43.46c-4.64,10.11 -7.17,33.2 -6.22,45.93 3.42,0.84 9.21,3.3 12.71,4.83 3.8,1.66 7.78,3.27 11.75,5.26 3.89,1.95 7.39,3.73 11.17,5.86l10.62 6.33c2.63,-17.54 2.3,-55.47 -5.28,-69.33 -11.68,-0.48 -23.54,-1.14 -34.75,1.12z"/>
     <path class="fil2" d="M106.86 128.12c0.66,0.07 4.71,4.96 5.4,5.74 1.33,1.51 4.17,5.38 5.34,6.3 0.32,-0.17 6.25,-6.86 6.74,-7.41 2.3,-2.59 4.5,-4.37 7.43,-7.08 2.65,-2.44 13.73,-10.42 17.37,-11.35l0.36 -2.65 -10.62 -6.33c-3.78,-2.13 -7.28,-3.91 -11.17,-5.86 -3.97,-1.99 -7.95,-3.6 -11.75,-5.26 -3.5,-1.53 -9.29,-3.99 -12.71,-4.83 0.24,6.99 0.57,13.37 1.17,20.14 0.27,2.93 1.69,16.89 2.44,18.59z"/>
     <path class="fil1" d="M169.7 105.38c0.63,0.76 2.36,-0.23 3.16,-0.43 1.39,-0.35 2.71,-0.66 4.12,-0.91 2.11,-0.39 6.94,-1.11 8.53,-1.65 2.45,-8.55 2.81,-23.27 0.74,-32.1 -1.16,-4.9 -2.91,-9.11 -4.99,-13.01 -1.33,-2.5 -5.69,-9.53 -7.41,-10.39 -2.25,-0.04 -9.08,-1.96 -12.41,-2.34l-1.33 0.17c2.47,4.85 3.54,5.96 5.83,12.12 1.63,4.36 2.93,9.46 3.77,14.49 0.92,5.47 1.38,11.06 1.35,16.82 -0.03,6.2 -1.15,11.63 -1.36,17.23z"/>
     <path class="fil3" d="M117.6 140.16l-0.04 0.53c0.96,0.59 1.09,1.24 1.85,2.1 0.74,0.84 1.1,1.37 1.82,2.27 0.86,1.08 2.96,3.79 3.51,4.92 1.05,1.56 2.21,2.99 3.42,4.86 0.96,1.48 3,4.2 3.46,5.63 1.01,0.82 6.19,9.84 6.56,11.57l-0.01 -0.02c3.24,-9.15 10.74,-48.16 10.97,-57.7 -3.64,0.93 -14.72,8.91 -17.37,11.35 -2.93,2.71 -5.13,4.49 -7.43,7.08 -0.49,0.55 -6.42,7.24 -6.74,7.41z"/>
     <path class="fil4" d="M112.05 210.66c0.03,4.12 3.13,13.17 3.85,17.94l22.37 0.01c0.61,-3.72 4,-15.22 3.83,-17.95l-30.05 0z"/>
     <path class="fil5" d="M73.63 56.33c-2.6,3.23 -7.35,16.02 -6.68,21.55l0.17 1.14 16.08 3.82c0.64,-6.67 1.13,-12.49 2.79,-18.71 0.77,-2.91 1.57,-5.66 2.66,-8.39 1.12,-2.79 2.52,-5.24 3.42,-7.69 -2.26,0.36 -7.5,2.95 -9.48,3.83 -2.05,0.92 -7.33,4.17 -8.96,4.45z"/>
     <path class="fil6" d="M118.01 178.71c-0.24,2.35 5.02,17.77 5.95,21.72l6.23 -0.04c1.82,-7.71 6.65,-20.65 7.98,-28.37l0.01 0.02c-1.33,-0.58 -0.2,0 -2.04,-2.16 -0.42,-0.49 -1.07,-1.39 -1.41,-1.83l-0.86 0.71c-1.79,2.05 -1.21,0.89 -2.62,1.36 -1.47,0.49 -0.17,1.66 -3.88,1.79 -0.09,0.17 -0.19,0.54 -0.2,0.56 -0.73,1.5 -3.35,1.95 -4.85,2 -0.74,2.18 -0.82,0.49 -1.86,2 -0.26,0.38 -0.87,2.31 -1.03,2.79 -0.59,-0.18 -0.96,-0.65 -1.21,-1.23l-0.21 0.68z"/>
     <path class="fil7" d="M169.7 105.38c-0.28,0.41 -1.84,9.31 -2.14,10.67 -0.72,3.24 -1.99,7.12 -2.47,10.18 1.39,0.41 1.61,1.15 2.67,1.97 1.24,0.96 1.42,1.2 2.48,2.24 1.29,1.26 3.27,3.78 5.08,3.9 1.89,-3.59 4.4,-10.96 5.74,-15.21 1.69,-5.37 3.36,-10.88 4.45,-16.74 -1.59,0.54 -6.42,1.26 -8.53,1.65 -1.41,0.25 -2.73,0.56 -4.12,0.91 -0.8,0.2 -2.53,1.19 -3.16,0.43z"/>
     <path class="fil8" d="M109.47 43.46c11.21,-2.26 23.07,-1.6 34.75,-1.12 -2.59,-6 -7.74,-12.67 -13.53,-15.55 -0.92,-0.45 -2.16,-0.83 -2.99,-1.4l-1.25 0c-1.56,1.09 -3.78,1.68 -5.56,2.99 -1.98,1.46 -3.27,2.49 -4.69,4.14 -2.28,2.66 -5.41,6.87 -6.73,10.94z"/>
     <path class="fil2" d="M67.84 97.97c2.71,0.2 14.52,8.77 17.2,10.29 -0.47,-3.99 -1.26,-7.63 -1.54,-11.9 -0.3,-4.68 -0.43,-8.75 -0.3,-13.52l-16.08 -3.82 -0.17 -1.14c-1.55,2.09 0.37,17.38 0.89,20.09z"/>
     <path class="fil3" d="M158.76 145.67c-0.53,2.44 -2.49,6.94 -3.51,9.48 -1.27,3.17 -2.43,6.04 -3.79,9.16 -2.61,5.97 -5.45,12.87 -8.31,17.84 0.84,0.79 1.75,3.06 2.19,4.3 1.84,-1.51 4.5,-5.43 5.89,-7.26 1.86,-2.46 3.56,-5.18 5.22,-7.72 1.39,-2.14 9,-14.77 9.22,-16.86 -0.43,-2.75 1.16,-1.97 1.28,-5.27l-1.97 -1.7c-0.04,-0.06 -0.08,-0.14 -0.12,-0.2l-1.54 -2.67c-3.97,0.02 -2.15,1.32 -4.1,1.86 -0.59,-0.48 -0.91,0.93 -0.46,-0.96z"/>
     <path class="fil9" d="M76.23 127.55l0.16 -1.74c2.39,-0.96 0.41,0.55 2.63,-1.19 1.65,-1.28 2.21,-0.55 6.05,-1.91 3.04,-1.09 2.49,-0.1 3.25,0.34l-3.28 -14.79c-2.68,-1.52 -14.49,-10.09 -17.2,-10.29 0.71,5.27 2.14,10.65 3.58,15.55 0.97,3.31 3.32,11.6 4.81,14.03z"/>
     <path class="fil1" d="M192.64 100.28l-0.15 1.27 5.77 -0.33c2.01,-8.24 3.58,-20.02 1.74,-28.58 -1.72,-7.97 -6.49,-16.64 -10.69,-21.42l-4.73 -1.28c0.64,2.39 11.32,14.59 9.83,36.17 -0.35,5.11 -1.34,9.48 -1.77,14.17z"/>
     <path class="fil10" d="M114.86 166.68c-0.12,1.79 1.51,6.9 2.08,9.15l0.66 2.23c0.23,0.48 0.18,0.37 0.41,0.65l0.21 -0.68c0.25,0.58 0.62,1.05 1.21,1.23 0.16,-0.48 0.77,-2.41 1.03,-2.79 1.04,-1.51 1.12,0.18 1.86,-2 1.5,-0.05 4.12,-0.5 4.85,-2 0.01,-0.02 0.11,-0.39 0.2,-0.56 3.71,-0.13 2.41,-1.3 3.88,-1.79 1.41,-0.47 0.83,0.69 2.62,-1.36l0.86 -0.71c0.34,0.44 0.99,1.34 1.41,1.83 1.84,2.16 0.71,1.58 2.04,2.16 -0.37,-1.73 -5.55,-10.75 -6.56,-11.57 -1.38,-0.55 -0.22,0.22 -1.27,-1.24 -0.64,-0.89 -1.82,-2.36 -2.8,-2.86 0.91,1.47 0.24,1.18 -0.84,1.57l-1.4 0.44c-0.05,0.03 -0.12,0.09 -0.17,0.13 -0.05,0.03 -0.12,0.1 -0.17,0.13l-3.11 2.56c-0.86,0.58 -1.43,0.38 -2.26,0.67l-3 2.34c-0.68,0.38 -1.53,0.72 -1.68,0.27l-0.06 2.2z"/>
     <path class="fil7" d="M179.85 138.07c-0.52,1.27 -0.08,1.65 0.6,2.33 0.85,0.82 1.09,1.02 2.14,1.51 4.9,-10.24 9.33,-18.19 12.71,-29.63 1.13,-3.81 1.97,-7.38 2.96,-11.06l-5.77 0.33 0.15 -1.27c-0.5,0.96 -1.97,8.41 -2.51,10.29 -0.93,3.25 -1.95,6.52 -3.05,9.55l-7.23 17.95z"/>
     <path class="fil11" d="M158.76 145.67c-0.45,1.89 -0.13,0.48 0.46,0.96 1.95,-0.54 0.13,-1.84 4.1,-1.86l1.54 2.67c0.04,0.06 0.08,0.14 0.12,0.2l1.97 1.7c-0.12,3.3 -1.71,2.52 -1.28,5.27 1.78,-1.52 9.26,-19.11 9.65,-20.27 -1.81,-0.12 -3.79,-2.64 -5.08,-3.9 -1.06,-1.04 -1.24,-1.28 -2.48,-2.24 -1.06,-0.82 -1.28,-1.56 -2.67,-1.97 -1.16,3.07 -1.86,6.67 -2.96,9.95 -1.09,3.24 -2.08,6.58 -3.37,9.49z"/>
     <path class="fil9" d="M65.02 127.84c0.31,-0.89 0.03,-0.64 0.05,-0.74 0.01,-0.04 0.03,-0.13 0.04,-0.17 0.63,-1.8 -0.87,0.96 0.35,-0.44 0.24,-0.28 0.16,0.11 0.28,-0.62 0.12,-0.76 -0.31,-0.12 0.19,-1.06l0.57 1.24c0.05,-0.07 0.13,-0.25 0.15,-0.2 0.02,0.05 0.12,-0.15 0.14,-0.19 0.03,-0.04 0.26,-0.47 0.28,-0.52 0.1,1.69 -0.35,1.04 1,1.17l0.16 -0.63c0.25,-0.4 -0.38,-0.05 0.62,-0.64 -0.54,-2.18 -1.85,-5.05 -2.59,-7.31 -0.81,-2.47 -1.59,-4.98 -2.29,-7.5 -1.54,-5.48 -2.41,-10.66 -3.46,-16.48 -2.4,-0.44 -3.93,-1.93 -6.33,-2.17 0.76,6.37 2.38,13.38 4.22,19.17 1.01,3.17 5.02,15.53 6.62,17.09z"/>
     <path class="fil12" d="M160.11 44.72l1.33 -0.17c3.33,0.38 10.16,2.3 12.41,2.34 -1.62,-3.48 -10.78,-10.44 -14.88,-13.04 -4.13,-2.63 -14.18,-7.71 -19.6,-8.1 4.89,3.22 6.28,3.05 11.77,8.04 5.31,4.83 5.63,6.84 8.97,10.93z"/>
     <path class="fil13" d="M87.12 151.88c0.08,1.3 4.72,9.74 5.86,11.66l1.76 3.01c0.04,0.05 0.13,0.14 0.17,0.18l0.36 0.36 0.64 -2.86c0.05,0.01 0.17,0.06 0.23,0.08l0.54 0.22c1.19,0.4 0.64,-0.17 2.77,-0.5l0.98 -0.38c0.02,-0.01 0.07,-0.07 0.09,-0.08 0.43,-0.38 0.16,0.29 0.5,-0.41 0.01,-0.02 -0.02,-0.74 -0.03,-0.76 0.43,0.95 0.35,1.54 1.2,1.03 -0.12,-0.85 -4.09,-10.62 -4.53,-11.26 -1.81,-0.84 -1,-0.65 -1.68,-2.42 -0.48,-1.24 -0.79,-1.28 -0.97,-2.79l-1.08 1.2 -0.47 -0.61c-0.02,-0.01 -0.1,-0.03 -0.12,-0.04l-0.62 0.13c-0.54,0.13 -0.88,0.1 -1.52,0.54 -1.39,0.97 -0.31,0.96 -4.1,0.97l0.02 2.73z"/>
     <path class="fil14" d="M81.16 139.15c0.07,1.45 3.84,9.07 4.99,11.34 0.13,0.25 0.3,0.59 0.47,0.82 0.27,0.39 0.21,0.31 0.5,0.57l-0.02 -2.73c3.79,-0.01 2.71,0 4.1,-0.97 0.64,-0.44 0.98,-0.41 1.52,-0.54l0.62 -0.13c0.02,0.01 0.1,0.03 0.12,0.04l0.47 0.61 1.08 -1.2c0.18,1.51 0.49,1.55 0.97,2.79 0.68,1.77 -0.13,1.58 1.68,2.42l-5.49 -15.76c-1.33,-0.56 -0.39,-0.41 -1.53,-2.67l-0.49 -0.86c-0.77,0.62 -0.72,0.46 -0.95,1.62l-2.22 0c-0.47,4.56 -6.88,-1.63 -5.82,4.65z"/>
     <path class="fil15" d="M76.23 127.55c0.37,1.91 3.77,10.68 4.93,11.6 -1.06,-6.28 5.35,-0.09 5.82,-4.65l2.22 0c0.23,-1.16 0.18,-1 0.95,-1.62l0.49 0.86c1.14,2.26 0.2,2.11 1.53,2.67 -0.92,-4.26 -2.86,-8.94 -3.85,-13.36 -0.76,-0.44 -0.21,-1.43 -3.25,-0.34 -3.84,1.36 -4.4,0.63 -6.05,1.91 -2.22,1.74 -0.24,0.23 -2.63,1.19l-0.16 1.74z"/>
     <path class="fil16" d="M73.63 56.33c1.63,-0.28 6.91,-3.53 8.96,-4.45 1.98,-0.88 7.22,-3.47 9.48,-3.83 1.33,-1.78 2.47,-4.12 3.78,-5.91 -1.14,-0.37 -2.3,-1.37 -3.33,-2.08 -0.48,-0.33 -0.87,-0.6 -1.48,-1 -0.98,-0.65 -0.96,-0.43 -1.28,-1.35 -3.95,2.58 -14.58,13.6 -16.13,18.62z"/>
     <path class="fil17" d="M111.25 152.65c0.63,2.07 2.73,12.99 3.61,14.03l0.06 -2.2c0.15,0.45 1,0.11 1.68,-0.27l3 -2.34c0.83,-0.29 1.4,-0.09 2.26,-0.67l3.11 -2.56c0.05,-0.03 0.12,-0.1 0.17,-0.13 0.05,-0.04 0.12,-0.1 0.17,-0.13l1.4 -0.44c1.08,-0.39 1.75,-0.1 0.84,-1.57 0.98,0.5 2.16,1.97 2.8,2.86 1.05,1.46 -0.11,0.69 1.27,1.24 -0.46,-1.43 -2.5,-4.15 -3.46,-5.63 -1.21,-1.87 -2.37,-3.3 -3.42,-4.86 -0.8,0.63 1.28,0.73 -1.03,0.49 -0.37,-0.83 -0.34,-1.3 -1.39,-1.51 -0.32,1.86 -0.78,1.49 -2.08,2.17 -1.68,0.89 -0.33,0.53 -1.96,1.23 -0.08,0.04 -0.17,0.06 -0.24,0.09 -2.02,0.82 0.69,-0.4 -0.65,0.26 -1.2,0.58 -1.49,1.63 -2.34,2.28l-1.36 1.21c-0.04,0.06 -0.13,0.32 -0.15,0.27 -0.03,-0.06 -0.09,0.2 -0.17,0.28 -0.06,-2.11 -0.03,-0.76 -0.39,-1.23 -1.14,-1.45 0.1,0.99 -1.73,-2.87z"/>
     <path class="fil16" d="M54.48 71.83c0.87,-0.67 6.62,-6.81 7.66,-6.42 0.7,-1.33 1.84,-5.27 3.8,-9.04 1.42,-2.74 3.13,-5.41 5.12,-8.12 6.03,-8.19 11.77,-11.52 13.06,-13.1 -4.95,0.83 -14.77,10.62 -18.3,14.81 -3.37,3.99 -10.55,14.76 -11.34,21.87z"/>
     <path class="fil14" d="M69.43 137.14c0.1,2.07 9.36,17.37 11.79,21.12 0.68,1.05 1.12,1.99 2.12,2.78l-0.28 -1.29 1.26 -1.65c1.63,0.6 0.19,0.27 1.72,1.21 -0.48,-1.54 -2.55,-4.55 -3.47,-6.17 -1.08,-1.88 -2.38,-4.07 -3.3,-5.8 -0.75,-1.42 -5.83,-11.62 -6.11,-11.88 -1.27,0.66 -0.96,1.78 -1.75,2.63l-0.83 -1.42c-0.79,-0.64 -0.75,-0.16 -1.15,0.47z"/>
     <path class="fil18" d="M110.66 149.98l0.59 2.67c1.83,3.86 0.59,1.42 1.73,2.87 0.36,0.47 0.33,-0.88 0.39,1.23 0.08,-0.08 0.14,-0.34 0.17,-0.28 0.02,0.05 0.11,-0.21 0.15,-0.27l1.36 -1.21c0.85,-0.65 1.14,-1.7 2.34,-2.28 1.34,-0.66 -1.37,0.56 0.65,-0.26 0.07,-0.03 0.16,-0.05 0.24,-0.09 1.63,-0.7 0.28,-0.34 1.96,-1.23 1.3,-0.68 1.76,-0.31 2.08,-2.17 1.05,0.21 1.02,0.68 1.39,1.51 2.31,0.24 0.23,0.14 1.03,-0.49 -0.55,-1.13 -2.65,-3.84 -3.51,-4.92 -0.72,-0.9 -1.08,-1.43 -1.82,-2.27 -0.76,-0.86 -0.89,-1.51 -1.85,-2.1 -1.45,1.26 -2.35,3.03 -3.6,4.71 -0.91,1.23 -2.27,3.8 -3.3,4.58z"/>
     <path class="fil14" d="M110.66 149.98c1.03,-0.78 2.39,-3.35 3.3,-4.58 1.25,-1.68 2.15,-3.45 3.6,-4.71l0.04 -0.53c-1.17,-0.92 -4.01,-4.79 -5.34,-6.3 -0.69,-0.78 -4.74,-5.67 -5.4,-5.74 0.3,6.76 2.74,15.11 3.8,21.86z"/>
     <path class="fil2" d="M54.18 91.58c2.4,0.24 3.93,1.73 6.33,2.17 -0.52,-5.71 -1.01,-9.79 -0.75,-15.91 -1.13,-0.84 -4.57,-1.21 -6.01,-1.39l0.23 -1.74c-1.68,2.33 -0.25,13.76 0.2,16.87z"/>
     <path class="fil11" d="M166.38 162.1c0.68,-0.27 0.91,-0.46 1.55,-0.33l0.16 0.56c0.15,2.35 0.22,-1.77 0.03,0.55 -0.11,1.35 -0.56,0.96 -0.58,1.9 -0.03,1.09 -0.08,0.65 0.29,1.27l14.76 -24.14c-1.05,-0.49 -1.29,-0.69 -2.14,-1.51 -0.68,-0.68 -1.12,-1.06 -0.6,-2.33 -1.2,1.06 -2.47,4.58 -3.33,6.18l-10.14 17.85z"/>
     <path class="fil19" d="M89.76 37.71c0.32,0.92 0.3,0.7 1.28,1.35 0.61,0.4 1,0.67 1.48,1 1.03,0.71 2.19,1.71 3.33,2.08 9.23,-12.77 15.57,-13.67 18.27,-16.15 -6.74,0.51 -20.65,8.24 -24.36,11.72z"/>
     <path class="fil3" d="M166.38 162.1l-4.68 7.04c-1.55,2.34 -3.21,4.55 -4.94,7.08 -1.65,2.42 -3.34,4.71 -5.03,6.95 -1.48,1.98 -3.88,4.73 -5.13,6.86l0.72 0.67c1.13,-0.43 4.51,-4.65 5.5,-5.82 1.82,-2.15 3.63,-4.17 5.2,-6.15l9.81 -12.68c-0.37,-0.62 -0.32,-0.18 -0.29,-1.27 0.02,-0.94 0.47,-0.55 0.58,-1.9 0.19,-2.32 0.12,1.8 -0.03,-0.55l-0.16 -0.56c-0.64,-0.13 -0.87,0.06 -1.55,0.33z"/>
     <path class="fil10" d="M103.4 179.51c0.58,1.35 2.99,4.25 3.9,5.34 1.52,1.82 2.5,2.94 4.06,4.78l4.32 4.83c1.51,1.47 3.09,3.58 4.49,4.44l-6.82 -12.21c-2.09,-4.01 -4.3,-8.33 -6.17,-12.5 -0.76,0.72 -0.17,-0.32 -0.3,0.72 -0.18,1.31 0.42,0.37 0.37,1.83 -0.06,1.55 -0.63,0.05 -0.7,2.56 0.02,-0.02 1.22,0.09 -0.21,-0.2 -0.99,-0.21 -1.4,0.1 -1.68,0.2l-1.26 0.21z"/>
     <path class="fil17" d="M99.58 174.27c0.74,1.44 2.7,4.4 3.82,5.24l1.26 -0.21c0.28,-0.1 0.69,-0.41 1.68,-0.2 1.43,0.29 0.23,0.18 0.21,0.2 0.07,-2.51 0.64,-1.01 0.7,-2.56 0.05,-1.46 -0.55,-0.52 -0.37,-1.83 0.13,-1.04 -0.46,0 0.3,-0.72l-3.98 -8.5c-0.74,0.76 -0.55,0.65 -1.11,2.22 -0.24,0.7 -0.51,1.36 -0.76,2.08 -0.3,0.89 -0.52,1.67 -0.75,2.42 -0.43,1.4 -0.43,1.46 -1,1.86z"/>
     <path class="fil5" d="M54.48 71.83c-0.45,1.07 -0.54,1.76 -0.5,2.88l-0.23 1.74c1.44,0.18 4.88,0.55 6.01,1.39 0.38,-1.95 0.51,-4.27 0.89,-6.21 0.43,-2.21 1.07,-4.11 1.49,-6.22 -1.04,-0.39 -6.79,5.75 -7.66,6.42z"/>
     <path class="fil15" d="M65.02 127.84c0.12,1.28 2.3,5.62 3.08,7.27l1.33 2.03c0.4,-0.63 0.36,-1.11 1.15,-0.47l0.83 1.42c0.79,-0.85 0.48,-1.97 1.75,-2.63l-4.31 -10.42c-1,0.59 -0.37,0.24 -0.62,0.64l-0.16 0.63c-1.35,-0.13 -0.9,0.52 -1,-1.17 -0.02,0.05 -0.25,0.48 -0.28,0.52 -0.02,0.04 -0.12,0.24 -0.14,0.19 -0.02,-0.05 -0.1,0.13 -0.15,0.2l-0.57 -1.24c-0.5,0.94 -0.07,0.3 -0.19,1.06 -0.12,0.73 -0.04,0.34 -0.28,0.62 -1.22,1.4 0.28,-1.36 -0.35,0.44 -0.01,0.04 -0.03,0.13 -0.04,0.17 -0.02,0.1 0.26,-0.15 -0.05,0.74z"/>
     <path class="fil20" d="M95.27 167.09c0.15,1.11 3.47,6.15 4.31,7.18 0.57,-0.4 0.57,-0.46 1,-1.86 0.23,-0.75 0.45,-1.53 0.75,-2.42 0.25,-0.72 0.52,-1.38 0.76,-2.08 0.56,-1.57 0.37,-1.46 1.11,-2.22l-1.01 -2.26c-0.85,0.51 -0.77,-0.08 -1.2,-1.03 0.01,0.02 0.04,0.74 0.03,0.76 -0.34,0.7 -0.07,0.03 -0.5,0.41 -0.02,0.01 -0.07,0.07 -0.09,0.08l-0.98 0.38c-2.13,0.33 -1.58,0.9 -2.77,0.5l-0.54 -0.22c-0.06,-0.02 -0.18,-0.07 -0.23,-0.08l-0.64 2.86z"/>
     <path class="fil13" d="M83.34 161.04c0.16,0.99 4.91,7.52 6.17,9.15 0.52,0.69 0.35,0.74 0.94,0.91 0.06,-0.08 0.28,-0.37 0.34,-0.42 0.44,-0.42 0.07,-0.11 0.49,-0.42 0.83,-0.59 0.36,-0.39 1.23,-0.68 -0.21,-1.06 -0.81,-1.67 -1.53,-2.78 -0.52,-0.82 -1.06,-1.61 -1.62,-2.48 -0.71,-1.12 -2.52,-4.45 -3.32,-5.01 -1.53,-0.94 -0.09,-0.61 -1.72,-1.21l-1.26 1.65 0.28 1.29z"/>
     <path class="fil21" d="M184.58 49.94l4.73 1.28c-2,-3.19 -13.63,-14.81 -18.81,-15.86l3.78 3.35c3.97,3.42 9.99,11.02 10.3,11.23z"/>
     <path class="fil6" d="M145.34 186.45c-0.44,-1.24 -1.35,-3.51 -2.19,-4.3 -1.43,3.1 -3.03,5.85 -4.67,8.9 -1.24,2.31 -3.63,6.74 -4.96,8.35 1.3,-0.81 11.15,-11.51 11.82,-12.95z"/>
     <path class="fil10" d="M98.09 180.75c0.62,1.37 8.47,10.15 10.36,12.11l6.5 6.5c-1.23,-1.72 -2.65,-3.49 -3.99,-5.22l-8.26 -10.67c-0.72,-0.99 -1.31,-1.78 -2.01,-2.72 -0.5,-0.67 -0.63,-0.89 -1.05,-1.47 -0.64,-0.86 -0.27,-0.62 -1.17,-1.16 0.29,1.19 0.21,1.74 -0.38,2.63z"/>
     <path class="fil20" d="M90.45 171.1c0.73,1.55 6.44,8.78 7.64,9.65 0.59,-0.89 0.67,-1.44 0.38,-2.63 -0.27,-1.16 -2.01,-3.21 -2.8,-4.33 -0.92,-1.33 -1.94,-3.4 -3.16,-4.21 -0.87,0.29 -0.4,0.09 -1.23,0.68 -0.42,0.31 -0.05,0 -0.49,0.42 -0.06,0.05 -0.28,0.34 -0.34,0.42z"/>
     <path class="fil20" d="M147.32 190.7l-0.72 -0.67c-1.16,1.26 -2.14,2.61 -3.24,4 -1.1,1.4 -2.24,2.69 -3.14,4.2 0.89,-0.48 6.66,-6.33 7.1,-7.53z"/>
    </g>
    <rect class="fil22 str0" width="254" height="254"/>
   </g>
  </g>
  <polygon class="fil22" points="-0,0 254,0 254,254 -0,254 "/>
 </g>
</svg>
