<?xml version="1.0" encoding="UTF-8"?>
<!DOCTYPE svg PUBLIC "-//W3C//DTD SVG 1.1//EN" "http://www.w3.org/Graphics/SVG/1.1/DTD/svg11.dtd">
<!-- Creator: CorelDRAW 2021 (64 Bit) -->
<svg xmlns="http://www.w3.org/2000/svg" xml:space="preserve" width="2.54mm" height="2.54mm" version="1.1" style="shape-rendering:geometricPrecision; text-rendering:geometricPrecision; image-rendering:optimizeQuality; fill-rule:evenodd; clip-rule:evenodd"
viewBox="0 0 254 254"
 xmlns:xlink="http://www.w3.org/1999/xlink"
 xmlns:xodm="http://www.corel.com/coreldraw/odm/2003">
 <defs>
  <style type="text/css">
   <![CDATA[
    .fil8 {fill:none}
    .fil2 {fill:#110E29}
    .fil7 {fill:#234C6B}
    .fil1 {fill:#24233D}
    .fil4 {fill:#297294}
    .fil5 {fill:#2A6282}
    .fil6 {fill:#2A86AA}
    .fil3 {fill:#31C5F0}
    .fil0 {fill:#31C5F0}
   ]]>
  </style>
   <clipPath id="id0">
    <path d="M-0 0l254 0 0 254 -254 0 0 -254z"/>
   </clipPath>
 </defs>
 <g id="Camada_x0020_1">
  <metadata id="CorelCorpID_0Corel-Layer"/>
  <polygon class="fil0" points="-0,0 254,0 254,254 -0,254 "/>
  <g style="clip-path:url(#id0)">
   <g id="_2183042164032">
    <g>
     <path id="_1" class="fil1" d="M131.58 103.66l-0.71 1.47 0.03 1.12 -0.78 1.23 0.04 1.15c0.14,1.22 0.48,1 -0.59,1l-0.66 2.35c0.09,1.1 0.38,0.87 -0.65,0.87l0.02 0.48c0.06,1.04 0.33,0.81 -0.67,0.81l0.02 0.48c0.06,1.05 0.32,0.8 -0.7,0.8l-0.52 1.2 -0.74 0.75 -0.51 1.27c-0.06,0.94 0.18,0.67 -0.82,0.67 -2.2,3.01 -3.37,4.08 -6.35,6.29 0,1.02 0.27,0.77 -0.73,0.81l-1.18 0.55 -0.66 0.75 -2.6 1.19c0,0.97 0.23,0.71 -0.79,0.65l-0.5 -0.01c0,0.97 0.23,0.71 -0.79,0.66l-0.5 -0.01c0,1.03 0.22,0.72 -0.92,0.61l-0.93 0.08 -0.9 0.61 -0.69 -0.09 -0.98 0.85 -0.96 -0.21 -1.05 0.83 -1.36 -0.15 -1.32 0.75 -1.11 -0.01 -1.54 0.67 -2.16 -0.32c-0.47,1.23 -1.83,0.95 -3.28,1.02l-15.67 -0.07 -0.13 42.56 -0.82 1.81 -14.61 0.31c-3.33,0.01 -3.27,0.1 -4.66,-0.95l-0.48 -121.53c-0.13,-1.28 -0.47,-1.01 0.65,-1.1 6.68,-2.52 28.74,0.05 37.25,-1.28 1.87,-0.15 2.34,-0.56 3.4,0.83l1.82 -0.13c2.35,0.1 1.31,0 1.98,0.82l1.3 -0.19c2.69,0.03 0.96,-0.13 1.57,0.73l1.08 -0.1 1.26 0.84 0.82 -0.24 1.11 0.89 0.57 -0.11c1.16,-0.04 0.95,-0.37 0.95,0.64l0.84 0.03c1.27,-0.13 1.02,-0.47 1.02,0.69l0.44 -0.12c1.21,-0.15 0.94,-0.44 0.94,0.73l0.35 -0.08c1.21,-0.14 0.93,-0.43 0.93,0.77l1.07 0.5c1.03,0.05 0.79,-0.23 0.79,0.76l1.15 0.51c0.98,0.08 0.73,-0.18 0.73,0.82l1.84 1.1c1.08,-0.04 0.88,-0.33 0.78,0.69 0.95,-0.1 0.74,-0.32 0.64,0.64 0.96,-0.1 0.74,-0.31 0.64,0.65 0.98,-0.09 0.7,-0.3 0.74,0.72l1.71 2.46c1.06,0 0.82,-0.28 0.82,0.74l0.45 1.28c1.02,0 0.76,-0.25 0.74,0.8l1.9 4.29c1.05,0 0.7,-0.21 0.62,1.02l0.07 0.83 0.59 1.09 -0.06 1.03 0.78 1.26c0.27,2.56 0.89,5.13 1.09,7.82 0.24,3.17 -0.14,6.45 0.19,9.55 0.1,1.72 0.42,1.73 -0.76,2.57l0.11 1.95zm-128.59 59.38l13.96 8.83c5.08,3.04 9.41,5.02 15.09,7.48 32.21,13.95 70.9,13.94 103.67,0.83 2.77,-1.11 5.21,-2.42 7.89,-3.17 -1.08,-3.16 -1.2,-16.11 -0.24,-20.1l1.69 0.42 0.58 0.7 5.88 2.55 0.82 0.55 0.93 0.18 0.99 0.49 0.95 0.12 1.17 0.46 4.38 0.73 2.44 0.71 6.98 0.01 1.78 -0.71 1.24 -0.06 1.03 -0.5 1.77 -0.72 0.63 -0.73 1.27 -1.26 0.74 -0.63 0.51 -2.21 0 -3.89 0.13 -0.98 -0.59 -0.73 -0.05 -0.54 -0.74 -0.65 -2.49 -2.52 -0.56 -0.84 -2.11 -1.09 -0.66 -0.71 -2.48 -1.3 -0.66 -0.65 -0.6 -0.02 -0.65 -0.65 -7.78 -3.8 -0.68 -0.68 -0.58 -0.01c-0.9,0.01 -0.67,0.23 -0.67,-0.68l-1.29 -0.56 -0.61 -0.75 -1.37 -0.51 -0.62 -0.8c-3,-2.24 -4.6,-2.93 -6.33,-6.42l-0.8 -0.67 -0.56 -1.2c-0.93,0 -0.69,0.23 -0.68,-0.71l-0.01 -0.5c-0.92,0 -0.65,0.21 -0.64,-0.79l0.01 -0.51c-0.96,0 -0.64,0.19 -0.58,-0.93l-0.08 -0.98 -0.53 -1.11 -0.1 -1.42 -0.73 -1.85 0.09 -9.06 0.65 -1.55 -0.09 -1.27 0.83 -1.07 -0.09 -0.68 0.61 -0.91 1.25 -3.05 0.72 -0.75 0.53 -1.19 0.82 -0.68c1.44,-2.43 2.14,-2.84 4.38,-4.48l0.67 -0.82 1.2 -0.53c0,-0.94 -0.23,-0.68 0.74,-0.71l4.51 -1.87 0.96 -0.57 0.81 -0.11 1.13 -0.53c7.91,-1.57 11.29,-0.82 18.91,-1.35l2.54 0.69 1.71 -0.12 1.82 0.73 1.75 -0.02 1.23 0.71 1.26 0 1.01 0.52 2.38 1.11c0.32,4.21 1.07,15.55 -0.47,18.33l-0.99 0 -1.67 -0.72 -0.75 -0.63 -0.53 -0.02 -0.84 -0.58 -2.39 -0.72 -1.05 -0.5 -1.22 -0.01 -1.18 -0.72 -6.09 -0.72 -6.99 -0.03 -1.69 0.07 -1.18 0.76c-4.49,0.97 -6.27,4.02 -5.84,9.45l0.59 0.97 2.62 2.93 0.61 0.84 1.88 1.17 0.71 0.73 2.68 1.19 0.69 0.67 0.49 0.04 0.67 0.67 7.75 3.83 0.66 0.66 0.54 0.04 0.65 0.66 1.37 0.54 0.66 0.7 1.28 0.57 0.65 0.74 1.31 0.6 0.58 0.67 0.69 0.69c1.94,1.3 2.19,2.07 4.22,3.11l7.75 -12.47c14.89,-26.78 20.28,-54.02 14.86,-85.34 -3.24,-18.71 -9.32,-27.98 -10.15,-31.88l-203.25 -0.01 -0.02 156.76z"/>
     <path class="fil2" d="M193.8 135.98c0.33,1.36 -0.59,0.03 0.86,1.92 1.02,0 0.78,-0.27 0.83,0.7l0.5 1.25c1,0 0.74,-0.25 0.73,0.76l-0.05 0.5c0.96,0 0.66,-0.22 0.67,0.84l-0.01 0.39c1.01,0 0.7,-0.21 0.63,0.92l0.1 0.87c1.01,0 0.64,-0.2 0.56,1.05l-0.06 1.17 0.85 1.64 -0.24 1.72c1.23,1.9 1.22,5.56 0,7.46l0.15 1.64 -0.83 1.74 0.17 1.33 -0.78 1.15 0.11 0.71 -0.61 0.92 -0.05 0.92c0.14,1.14 0.43,0.9 -0.67,0.9l-1.25 2.37c-0.03,0.99 0.22,0.74 -0.77,0.74l-1.73 2.56c0.01,1.01 0.27,0.76 -0.7,0.8l-2.58 1.76 -0.66 0.78 -1.2 0.55c0,0.93 0.22,0.68 -0.73,0.71l-3.09 1.26 -0.86 0.62 -0.37 0.03c0,1.09 0.22,0.74 -1.01,0.6l-0.98 0.04 -1.12 0.53 -1.11 0.04 -1.25 0.79 -1.95 -0.22 -2.36 0.86 -13.31 -0.17 -1.96 -0.51 -2.17 -0.05 -1.7 -0.6 -1.58 0 -1.24 -0.77 -1.17 0.07c-1.41,0.21 -1.18,0.62 -1.18,-0.6l-0.71 -0.09c-1.25,0.16 -1.02,0.5 -1.02,-0.63l-0.36 0.01c-1.14,0.04 -0.93,0.37 -0.93,-0.64l-0.44 0.03c-1.07,0 -0.85,0.29 -0.85,-0.67l-0.72 0.33c-2.68,0.75 -5.12,2.06 -7.89,3.17 -32.77,13.11 -71.46,13.12 -103.67,-0.83 -5.68,-2.46 -10.01,-4.44 -15.09,-7.48l-13.96 -8.83 -0.18 84.63 248.21 0 -0.02 -241.38 -44.74 0c0.83,3.9 6.91,13.17 10.15,31.88 5.42,31.32 0.03,58.56 -14.86,85.34l-7.75 12.47z"/>
     <path class="fil3" d="M2.99 163.04l0.02 -156.76 203.25 0.01 44.74 0 0.02 241.38 -248.21 0 0.18 -84.63zm-11.47 96.21l270.96 0 0 -264.5 -270.96 0 0 264.5z"/>
     <path class="fil3" d="M110.2 104.29c0.06,1.15 0.39,0.95 -0.62,0.95l-0.67 1.56c-0.04,1.03 0.24,0.79 -0.75,0.79l-1.69 2.61 -0.79 0.79 -3.82 2.39c0,0.97 0.22,0.67 -0.85,0.68l-0.33 0.01c0,1.04 0.22,0.73 -0.92,0.64l-2.83 0.69 -1.32 0.52 -1.28 0.11 -1.79 0.61 -15.34 0.01c0,-6.83 -0.74,-39.54 0.48,-43.45 6.3,-0.17 11.71,0.08 17.56,0.26l1.49 0.77 3.01 0.53c1.24,-0.14 0.99,-0.47 0.99,0.66l1.48 0.68c1.09,0.01 0.84,-0.28 0.84,0.76 2.19,0.91 2.28,1.51 3.72,3.12 1.06,0 0.77,-0.27 0.9,0.76l2.54 4.77c1.08,0 0.7,-0.21 0.59,1.09 1.16,8.36 1.3,9.62 -0.6,17.69zm-52.88 -48.43c0,1.3 0.4,1.1 -0.65,1.1l0.48 121.53c1.39,1.05 1.33,0.96 4.66,0.95l14.61 -0.31 0.29 -42.45c0,-3.43 -0.04,-0.9 0.66,-1.92l15.67 0.07 3.28 -1.02 2.16 0.32 1.54 -0.67 1.11 0.01 1.32 -0.75 1.36 0.15 1.05 -0.83 0.96 0.21 0.98 -0.85 0.69 0.09c0,-1.01 -0.21,-0.7 0.9,-0.61l0.93 -0.08 0.92 -0.61 0.5 0.01 0.79 -0.66 0.5 0.01 0.79 -0.65 2.6 -1.19 0.66 -0.75 1.18 -0.55 0.73 -0.81c2.98,-2.21 4.15,-3.28 6.35,-6.29l0.82 -0.67 0.51 -1.27c-0.03,-1.01 -0.27,-0.75 0.74,-0.75l0.52 -1.2 0.7 -0.8 -0.02 -0.48 0.67 -0.81 -0.02 -0.48 0.65 -0.87 0.66 -2.35 0.59 -1 -0.04 -1.15 0.78 -1.23 -0.03 -1.12 0.71 -1.47 -0.11 -1.95 0.76 -2.57c-0.33,-3.1 0.05,-6.38 -0.19,-9.55 -0.2,-2.69 -0.82,-5.26 -1.09,-7.82l-0.78 -1.26 0.06 -1.03c-1.08,0 -0.7,0.2 -0.59,-1.09l-0.07 -0.83c-1.02,0 -0.66,0.2 -0.62,-1.02l-1.9 -4.29c-0.98,0 -0.7,0.23 -0.74,-0.8l-0.45 -1.28c-0.98,0 -0.71,0.24 -0.82,-0.74l-1.71 -2.46c-1.05,0 -0.84,0.28 -0.74,-0.72 -0.95,0.09 -0.74,0.31 -0.64,-0.65 -0.96,0.1 -0.74,0.31 -0.64,-0.64 -1.03,0.09 -0.78,0.33 -0.78,-0.69l-1.84 -1.1c-1,-0.04 -0.73,0.21 -0.73,-0.82l-1.15 -0.51c-1.05,0.02 -0.79,0.28 -0.79,-0.76l-1.07 -0.5c-1.15,-0.09 -0.93,0.25 -0.93,-0.77l-0.35 0.08c-1.16,-0.03 -0.94,0.3 -0.94,-0.73l-0.44 0.12c-1.23,-0.01 -1.02,0.36 -1.02,-0.69l-0.84 -0.03c-1.17,0.08 -0.95,0.41 -0.95,-0.64l-0.57 0.11 -1.11 -0.89 -0.82 0.24 -1.26 -0.84 -1.08 0.1 -1.57 -0.73 -1.3 0.19 -1.98 -0.82 -1.82 0.13c-0.88,-0.04 -0.94,0.06 -1.92,-0.15 -1.07,-0.22 -1.03,-0.41 -1.48,-0.68 -8.51,1.33 -30.57,-1.24 -37.25,1.28z"/>
     <path class="fil3" d="M162.77 87.73l-1.13 0.53 -0.81 0.11 -0.96 0.57 -4.51 1.87c0,0.93 0.22,0.67 -0.74,0.71l-1.2 0.53 -0.67 0.82c-2.24,1.64 -2.94,2.05 -4.38,4.48 -0.03,0.95 0.2,0.68 -0.82,0.68l-0.53 1.19c0.05,1 0.29,0.75 -0.72,0.75l-1.25 3.05c0.09,1.12 0.4,0.91 -0.61,0.91l0.09 0.68 -0.83 1.07 0.09 1.27 -0.65 1.55 -0.09 9.06 0.73 1.85 0.1 1.42 0.53 1.11 0.08 0.98 0.58 0.93 -0.01 0.51 0.64 0.79 0.01 0.5 0.68 0.71 0.56 1.2c0.99,0 0.77,-0.26 0.8,0.67 1.73,3.49 3.33,4.18 6.33,6.42l0.62 0.8 1.37 0.51 0.61 0.75 1.29 0.56 0.67 0.68 0.58 0.01 0.68 0.68 7.78 3.8 0.65 0.65 0.6 0.02 0.66 0.65 2.48 1.3 0.66 0.71 2.11 1.09 0.56 0.84 2.49 2.52 0.74 0.65 0.05 0.54 0.59 0.73 -0.13 0.98c1.13,0.53 0.79,0.74 0.79,2.27l-0.79 1.62 -0.51 2.21 -0.74 0.63 -1.27 1.26 -0.63 0.73 -1.77 0.72 -1.03 0.5 -1.24 0.06 -1.78 0.71 -6.98 -0.01 -2.44 -0.71 -4.38 -0.73 -1.17 -0.46 -0.95 -0.12 -0.99 -0.49 -0.93 -0.18 -0.82 -0.55 -5.88 -2.55 -0.58 -0.7 -1.69 -0.42c-0.96,3.99 -0.84,16.94 0.24,20.1l0.72 -0.33c1.07,-0.04 0.85,-0.33 0.85,0.67l0.44 -0.03c1.14,-0.03 0.93,-0.36 0.93,0.64l0.36 -0.01 1.02 0.63 0.71 0.09 1.18 0.6 1.17 -0.07 1.24 0.77 1.58 0 1.7 0.6 2.17 0.05c3.27,-0.22 1.26,-0.19 1.96,0.51l13.31 0.17 2.36 -0.86 1.95 0.22 1.25 -0.79 1.11 -0.04 1.12 -0.53 0.98 -0.04 1.01 -0.6 0.37 -0.03c0,-1 -0.22,-0.72 0.86,-0.62l3.09 -1.26 0.73 -0.71 1.2 -0.55 0.66 -0.78 2.58 -1.76c0,-1.03 -0.28,-0.8 0.7,-0.8l1.73 -2.56 0.77 -0.74 1.25 -2.37 0.67 -0.9 0.05 -0.92c-0.12,-1.14 -0.43,-0.92 0.61,-0.92l-0.11 -0.71 0.78 -1.15 -0.17 -1.33 0.83 -1.74 -0.15 -1.64 0 -7.46 0.24 -1.72 -0.85 -1.64 0.06 -1.17 -0.56 -1.05 -0.1 -0.87c-0.96,0 -0.64,0.2 -0.63,-0.92l0.01 -0.39c-0.99,0 -0.71,0.22 -0.67,-0.84l0.05 -0.5c-0.95,0 -0.67,0.22 -0.73,-0.76l-0.5 -1.25 -0.83 -0.7c-1.45,-1.89 -0.53,-0.56 -0.86,-1.92 -2.03,-1.04 -2.28,-1.81 -4.22,-3.11l-0.69 -0.69 -0.58 -0.67 -1.31 -0.6 -0.65 -0.74 -1.28 -0.57 -0.66 -0.7 -1.37 -0.54 -0.65 -0.66 -0.54 -0.04 -0.66 -0.66 -7.75 -3.83 -0.67 -0.67 -0.49 -0.04 -0.69 -0.67 -2.68 -1.19c-0.97,0.05 -0.71,0.28 -0.71,-0.73l-1.88 -1.17 -0.61 -0.84 -2.62 -2.93c-1.04,0 -0.71,0.21 -0.59,-0.97 -0.43,-5.43 1.35,-8.48 5.84,-9.45l1.18 -0.76 1.69 -0.07c0.3,-0.13 0.15,-0.28 1.58,-0.52 0.17,-0.03 1.75,-0.11 1.95,-0.11 2.13,0.01 2.02,0.01 3.46,0.66l6.09 0.72 1.18 0.72 1.22 0.01 1.05 0.5 2.39 0.72 0.84 0.58 0.53 0.02 0.75 0.63 1.67 0.72 0.99 0c1.54,-2.78 0.79,-14.12 0.47,-18.33l-2.38 -1.11 -1.01 -0.52 -1.26 0 -1.23 -0.71 -1.75 0.02 -1.82 -0.73 -1.71 0.12 -2.54 -0.69c-7.62,0.53 -11,-0.22 -18.91,1.35z"/>
     <path class="fil1" d="M92.54 116.64l1.79 -0.61 1.28 -0.11c0,-1.13 -0.19,-0.66 1.32,-0.52l2.83 -0.69c0,-0.96 -0.2,-0.63 0.92,-0.64l0.33 -0.01c0,-1.01 -0.23,-0.72 0.85,-0.68l3.82 -2.39c0,-1.05 -0.26,-0.79 0.79,-0.79l1.69 -2.61c0.01,-1.04 -0.26,-0.79 0.75,-0.79l0.67 -1.56c-0.05,-1.15 -0.38,-0.95 0.62,-0.95 1.9,-8.07 1.76,-9.33 0.6,-17.69 -1.04,0 -0.65,0.2 -0.59,-1.09l-2.54 -4.77c-1.1,0 -0.84,0.29 -0.9,-0.76 -1.44,-1.61 -1.53,-2.21 -3.72,-3.12 -1.1,0.03 -0.84,0.31 -0.84,-0.76l-1.48 -0.68c-1.19,0.01 -0.99,0.36 -0.99,-0.66l-3.01 -0.53 -1.49 -0.77c-5.85,-0.18 -11.26,-0.43 -17.56,-0.26 -1.22,3.91 -0.48,36.62 -0.48,43.45l15.34 -0.01z"/>
     <path class="fil4" d="M76.42 179.13l0.82 -1.81 0.13 -42.56c-0.7,1.02 -0.66,-1.51 -0.66,1.92l-0.29 42.45z"/>
     <path class="fil5" d="M199.17 157.17c1.22,-1.9 1.23,-5.56 0,-7.46l0 7.46z"/>
     <path class="fil4" d="M178.2 103.71c-1.44,-0.65 -1.33,-0.65 -3.46,-0.66 -0.2,0 -1.78,0.08 -1.95,0.11 -1.43,0.24 -1.28,0.39 -1.58,0.52l6.99 0.03z"/>
     <path class="fil4" d="M179.14 157.01l0.79 -1.62c0,-1.53 0.34,-1.74 -0.79,-2.27l0 3.89z"/>
     <path class="fil5" d="M97.97 55.41c-1.06,-1.39 -1.53,-0.98 -3.4,-0.83 0.45,0.27 0.41,0.46 1.48,0.68 0.98,0.21 1.04,0.11 1.92,0.15z"/>
     <path class="fil6" d="M96.32 133.81l-3.28 1.02c1.45,-0.07 2.81,0.21 3.28,-1.02z"/>
     <path class="fil5" d="M131.47 101.71c1.18,-0.84 0.86,-0.85 0.76,-2.57l-0.76 2.57z"/>
     <path class="fil4" d="M57.32 55.86c-1.12,0.09 -0.78,-0.18 -0.65,1.1 1.05,0 0.65,0.2 0.65,-1.1z"/>
     <path class="fil5" d="M112.29 59.28c0,-1.16 0.25,-0.82 -1.02,-0.69 0,1.05 -0.21,0.68 1.02,0.69z"/>
     <path class="fil6" d="M110.8 86.6c0.11,-1.3 0.49,-1.09 -0.59,-1.09 -0.06,1.29 -0.45,1.09 0.59,1.09z"/>
     <path class="fil5" d="M114.95 60.58c0,-1.2 0.28,-0.91 -0.93,-0.77 0,1.02 -0.22,0.68 0.93,0.77z"/>
     <path class="fil5" d="M113.67 59.89c0,-1.17 0.27,-0.88 -0.94,-0.73 0,1.03 -0.22,0.7 0.94,0.73z"/>
     <path class="fil6" d="M100.73 75.42c0,-1.13 0.25,-0.8 -0.99,-0.66 0,1.02 -0.2,0.67 0.99,0.66z"/>
     <path class="fil4" d="M129.57 77.56c0.08,-1.23 0.43,-1.02 -0.62,-1.02 -0.04,1.22 -0.4,1.02 0.62,1.02z"/>
     <path class="fil6" d="M110.43 58.56c0,-1.01 0.21,-0.68 -0.95,-0.64 0,1.05 -0.22,0.72 0.95,0.64z"/>
     <path class="fil4" d="M103.05 76.86c0,-1.04 0.25,-0.75 -0.84,-0.76 0,1.07 -0.26,0.79 0.84,0.76z"/>
     <path class="fil4" d="M110.2 104.29c-1,0 -0.67,-0.2 -0.62,0.95 1.01,0 0.68,0.2 0.62,-0.95z"/>
     <path class="fil4" d="M146.54 177.96c0,-1 0.21,-0.67 -0.93,-0.64 0,1.01 -0.21,0.68 0.93,0.64z"/>
     <path class="fil6" d="M100.68 114.07c-1.12,0.01 -0.92,-0.32 -0.92,0.64 1.14,0.09 0.92,0.4 0.92,-0.64z"/>
     <path class="fil4" d="M107.67 80.74c-0.13,-1.03 0.16,-0.76 -0.9,-0.76 0.06,1.05 -0.2,0.76 0.9,0.76z"/>
     <path class="fil5" d="M197.96 143.26c0.07,-1.13 0.38,-0.92 -0.63,-0.92 -0.01,1.12 -0.33,0.92 0.63,0.92z"/>
     <path class="fil5" d="M121.31 64.96c0.1,-1.02 0.3,-0.73 -0.78,-0.69 0,1.02 -0.25,0.78 0.78,0.69z"/>
     <path class="fil4" d="M101.86 113.38c-1.08,-0.04 -0.85,-0.33 -0.85,0.68 1.07,-0.01 0.85,0.29 0.85,-0.68z"/>
     <path class="fil6" d="M116.81 61.84c0,-0.99 0.24,-0.71 -0.79,-0.76 0,1.04 -0.26,0.78 0.79,0.76z"/>
     <path class="fil4" d="M127.05 72.25c0.02,-1.05 0.28,-0.8 -0.74,-0.8 0.04,1.03 -0.24,0.8 0.74,0.8z"/>
     <path class="fil4" d="M145.17 177.35c0,-1 0.22,-0.71 -0.85,-0.67 0,0.96 -0.22,0.67 0.85,0.67z"/>
     <path class="fil4" d="M108.91 106.8c-1.01,0 -0.74,-0.25 -0.75,0.79 0.99,0 0.71,0.24 0.75,-0.79z"/>
     <path class="fil4" d="M197.34 141.95c-0.01,-1.06 0.29,-0.84 -0.67,-0.84 -0.04,1.06 -0.32,0.84 0.67,0.84z"/>
     <path class="fil4" d="M125.86 70.17c0,-1.02 0.24,-0.74 -0.82,-0.74 0.11,0.98 -0.16,0.74 0.82,0.74z"/>
     <path class="fil5" d="M123.33 66.97c-0.04,-1.02 0.24,-0.81 -0.74,-0.72 -0.1,1 -0.31,0.72 0.74,0.72z"/>
     <path class="fil6" d="M118.69 63.17c0,-1 0.25,-0.74 -0.73,-0.82 0,1.03 -0.27,0.78 0.73,0.82z"/>
     <path class="fil7" d="M192.91 172.15c-0.98,0 -0.7,-0.23 -0.7,0.8 0.97,-0.04 0.71,0.21 0.7,-0.8z"/>
     <path class="fil5" d="M196.72 140.61c0.01,-1.01 0.27,-0.76 -0.73,-0.76 0.06,0.98 -0.22,0.76 0.73,0.76z"/>
     <path class="fil4" d="M159.63 181.13c-0.7,-0.7 1.31,-0.73 -1.96,-0.51l1.96 0.51z"/>
     <path class="fil4" d="M101.77 56.1c-0.67,-0.82 0.37,-0.72 -1.98,-0.82l1.98 0.82z"/>
     <path class="fil5" d="M121.95 65.6c0.1,-0.96 0.31,-0.74 -0.64,-0.64 -0.1,0.95 -0.32,0.74 0.64,0.64z"/>
     <path class="fil4" d="M155.36 90.81c-0.97,0.03 -0.74,-0.23 -0.74,0.71 0.96,-0.04 0.74,0.22 0.74,-0.71z"/>
     <path class="fil5" d="M122.59 66.25c0.1,-0.96 0.32,-0.75 -0.64,-0.65 -0.1,0.96 -0.31,0.74 0.64,0.65z"/>
     <path class="fil4" d="M104.64 56.64c-0.61,-0.86 1.12,-0.7 -1.57,-0.73l1.57 0.73z"/>
     <path class="fil7" d="M149.81 179.27l-1.18 -0.6c0,1.22 -0.23,0.81 1.18,0.6z"/>
     <path class="fil4" d="M96.93 115.4c-1.51,-0.14 -1.32,-0.61 -1.32,0.52l1.32 -0.52z"/>
     <path class="fil7" d="M147.92 178.58l-1.02 -0.63c0,1.13 -0.23,0.79 1.02,0.63z"/>
     <path class="fil6" d="M130.23 79.48l-0.59 -1.09c-0.11,1.29 -0.49,1.09 0.59,1.09z"/>
     <path class="fil7" d="M182.72 178.66l-1.01 0.6c1.23,0.14 1.01,0.49 1.01,-0.6z"/>
     <path class="fil5" d="M130.16 108.63l-0.59 1c1.07,0 0.73,0.22 0.59,-1z"/>
     <path class="fil7" d="M197.33 165.58l-0.67 0.9c1.1,0 0.81,0.24 0.67,-0.9z"/>
     <path class="fil4" d="M198.62 145.18c0.08,-1.25 0.45,-1.05 -0.56,-1.05l0.56 1.05z"/>
     <path class="fil6" d="M163.09 114.93l-0.59 -0.97c-0.12,1.18 -0.45,0.97 0.59,0.97z"/>
     <path class="fil6" d="M197.99 163.74c-1.04,0 -0.73,-0.22 -0.61,0.92l0.61 -0.92z"/>
     <path class="fil5" d="M110.24 130.19l-0.92 0.61c1.14,0.11 0.92,0.42 0.92,-0.61z"/>
     <path class="fil5" d="M128.91 111.98l-0.65 0.87c1.03,0 0.74,0.23 0.65,-0.87z"/>
     <path class="fil6" d="M145.05 103.02l-0.61 0.91c1.01,0 0.7,0.21 0.61,-0.91z"/>
     <path class="fil6" d="M108.39 130.88c-1.11,-0.09 -0.9,-0.4 -0.9,0.61l0.9 -0.61z"/>
     <path class="fil6" d="M106.47 110.2c-1.05,0 -0.79,-0.26 -0.79,0.79l0.79 -0.79z"/>
     <path class="fil6" d="M183.95 178.01c-1.08,-0.1 -0.86,-0.38 -0.86,0.62l0.86 -0.62z"/>
     <path class="fil5" d="M127.63 114.62l-0.7 0.8c1.02,0 0.76,0.25 0.7,-0.8z"/>
     <path class="fil5" d="M145.07 123.85l-0.58 -0.93c-0.06,1.12 -0.38,0.93 0.58,0.93z"/>
     <path class="fil5" d="M128.28 113.33l-0.67 0.81c1,0 0.73,0.23 0.67,-0.81z"/>
     <path class="fil6" d="M126.41 116.62c-1.01,0 -0.77,-0.26 -0.74,0.75l0.74 -0.75z"/>
     <path class="fil6" d="M147.02 99.22l-0.72 0.75c1.01,0 0.77,0.25 0.72,-0.75z"/>
     <path class="fil5" d="M117.99 125.6l-0.73 0.81c1,-0.04 0.73,0.21 0.73,-0.81z"/>
     <path class="fil5" d="M195.49 138.6c-0.05,-0.97 0.19,-0.7 -0.83,-0.7l0.83 0.7z"/>
     <path class="fil5" d="M111.53 129.54l-0.79 0.66c1.02,0.05 0.79,0.31 0.79,-0.66z"/>
     <path class="fil5" d="M112.82 128.9l-0.79 0.65c1.02,0.06 0.79,0.32 0.79,-0.65z"/>
     <path class="fil6" d="M148.37 97.35l-0.82 0.68c1.02,0 0.79,0.27 0.82,-0.68z"/>
     <path class="fil6" d="M168.91 120.6l-0.71 -0.73c0,1.01 -0.26,0.78 0.71,0.73z"/>
     <path class="fil5" d="M195.41 168.85l-0.77 0.74c0.99,0 0.74,0.25 0.77,-0.74z"/>
     <path class="fil4" d="M125.16 118.64l-0.82 0.67c1,0 0.76,0.27 0.82,-0.67z"/>
     <path class="fil4" d="M145.7 125.15l-0.64 -0.79c-0.01,1 -0.28,0.79 0.64,0.79z"/>
     <path class="fil6" d="M147.75 128.23c-0.03,-0.93 0.19,-0.67 -0.8,-0.67l0.8 0.67z"/>
     <path class="fil4" d="M187.77 176.04l-0.73 0.71c0.95,-0.03 0.73,0.22 0.73,-0.71z"/>
     <path class="fil4" d="M146.39 126.36l-0.68 -0.71c-0.01,0.94 -0.25,0.71 0.68,0.71z"/>
     <path class="fil5" d="M158.64 137.95l-0.67 -0.68c0,0.91 -0.23,0.69 0.67,0.68z"/>
     <polygon class="fil6" points="181.85,127.66 181.19,127 "/>
     <polygon class="fil5" points="184.22,87.07 181.68,86.38 "/>
     <polygon class="fil4" points="183.04,128.36 182.39,127.7 "/>
     <polygon class="fil6" points="187.75,87.68 185.93,86.95 "/>
     <polygon class="fil6" points="185.07,129.6 184.41,128.9 "/>
     <polygon class="fil4" points="162.77,87.73 161.64,88.26 "/>
     <polygon class="fil4" points="190.73,88.37 189.5,87.66 "/>
     <polygon class="fil6" points="187,130.91 186.35,130.17 "/>
     <polygon class="fil4" points="160.83,88.37 159.87,88.94 "/>
     <polygon class="fil4" points="106.8,131.4 105.82,132.25 "/>
     <polygon class="fil5" points="188.89,132.18 188.31,131.51 "/>
     <polygon class="fil4" points="104.86,132.04 103.81,132.87 "/>
     <polygon class="fil6" points="189.58,132.87 188.89,132.18 "/>
     <polygon class="fil6" points="102.45,132.72 101.13,133.47 "/>
     <polygon class="fil5" points="100.02,133.46 98.48,134.13 "/>
     <polygon class="fil5" points="193,88.89 191.99,88.37 "/>
     <polygon class="fil5" points="154.7,135.45 154.08,134.65 "/>
     <polygon class="fil4" points="156.68,136.71 156.07,135.96 "/>
     <polygon class="fil4" points="153.42,92.05 152.75,92.87 "/>
     <polygon class="fil6" points="159.9,138.64 159.22,137.96 "/>
     <polygon class="fil5" points="169.52,103.75 168.34,104.51 "/>
     <polygon class="fil5" points="130.87,105.13 131.58,103.66 "/>
     <polygon class="fil4" points="185.47,105.15 184.29,104.43 "/>
     <polygon class="fil5" points="168.33,143.09 167.68,142.44 "/>
     <polygon class="fil4" points="143.7,105.68 144.53,104.61 "/>
     <polygon class="fil4" points="169.59,143.76 168.93,143.11 "/>
     <polygon class="fil6" points="187.74,105.66 186.69,105.16 "/>
     <polygon class="fil6" points="190.97,106.96 190.13,106.38 "/>
     <polygon class="fil4" points="130.12,107.48 130.9,106.25 "/>
     <polygon class="fil4" points="175.4,147.7 174.84,146.86 "/>
     <polygon class="fil4" points="199.41,147.99 198.56,146.35 "/>
     <polygon class="fil6" points="178.63,150.87 177.89,150.22 "/>
     <polygon class="fil4" points="179.27,152.14 178.68,151.41 "/>
     <polygon class="fil4" points="192.25,107.61 191.5,106.98 "/>
     <polygon class="fil4" points="143.14,108.5 143.79,106.95 "/>
     <polygon class="fil4" points="145.63,158.03 145.05,157.33 "/>
     <polygon class="fil4" points="178.63,159.22 177.89,159.85 "/>
     <polygon class="fil6" points="198.49,160.55 199.32,158.81 "/>
     <polygon class="fil4" points="152.33,161.13 151.51,160.58 "/>
     <polygon class="fil5" points="154.25,161.8 153.26,161.31 "/>
     <polygon class="fil4" points="176.62,161.11 175.99,161.84 "/>
     <polygon class="fil4" points="156.37,162.38 155.2,161.92 "/>
     <polygon class="fil6" points="174.22,162.56 173.19,163.06 "/>
     <polygon class="fil4" points="197.88,163.03 198.66,161.88 "/>
     <polygon class="fil6" points="163.19,163.82 160.75,163.11 "/>
     <polygon class="fil6" points="171.95,163.12 170.17,163.83 "/>
     <polygon class="fil4" points="172.73,145.77 172.07,145.06 "/>
     <polygon class="fil4" points="194.91,108.33 193.92,108.33 "/>
     <polygon class="fil6" points="94.33,116.03 92.54,116.64 "/>
     <polygon class="fil4" points="166.32,118.7 165.71,117.86 "/>
     <polygon class="fil4" points="189.63,174.71 188.97,175.49 "/>
     <polygon class="fil6" points="143.78,119.41 143.05,117.56 "/>
     <polygon class="fil4" points="144.41,121.94 143.88,120.83 "/>
     <polygon class="fil4" points="172.28,122.46 171.59,121.79 "/>
     <polygon class="fil5" points="173.44,123.17 172.77,122.5 "/>
     <polygon class="fil4" points="106.98,57.38 105.72,56.54 "/>
     <polygon class="fil4" points="108.91,58.03 107.8,57.14 "/>
     <polygon class="fil4" points="96.73,74.23 95.24,73.46 "/>
     <polygon class="fil6" points="130.95,81.77 130.17,80.51 "/>
     <polygon class="fil5" points="152.22,179.97 150.98,179.2 "/>
     <polygon class="fil5" points="180.73,179.3 179.61,179.83 "/>
     <polygon class="fil4" points="155.5,180.57 153.8,179.97 "/>
     <polygon class="fil7" points="178.5,179.87 177.25,180.66 "/>
     <polygon class="fil4" points="116.08,126.96 115.42,127.71 "/>
     <polygon class="fil4" points="175.3,180.44 172.94,181.3 "/>
    </g>
   </g>
  </g>
  <polygon class="fil8" points="-0,0 254,0 254,254 -0,254 "/>
 </g>
</svg>
